  <svg
            xmlns="http://www.w3.org/2000/svg"
            width="81"
            height="75"
            viewBox="0 0 81 75"
            fill="none"
          >
            <path
              d="M0 38.389C0 38.389 52.7138 43.9769 69.844 72.8555C71.0938 74.9641 73.8141 75.635 75.8774 74.3339C76.9588 73.6534 78.045 72.7189 79.7739 70.9337C79.7739 70.9337 69.2701 49.893 31.3361 31.9265C21.2425 27.5655 12.2992 25.8571 3.99617 25.8571C1.06723 25.8571 0.275107 27.5991 0 38.3866L0 38.389Z"
              fill="url(#paint0_linear_2191_172)"
            />
            <path
              d="M26.5953 25.3011C26.5953 25.3011 64.0383 38.1613 79.7739 70.9385C79.7739 70.9385 82.9068 67.6557 78.2229 56.8203C72.8536 46.143 52.3249 5.96885 52.3249 5.96885C52.3249 5.96885 50.2521 0.424121 44.2448 0.0215647C38.2375 -0.380991 35.4082 5.53754 35.4082 5.53754L25.8529 20.4153C25.8529 20.4153 23.5383 23.25 26.5929 25.3011H26.5953Z"
              fill="url(#paint1_linear_2191_172)"
            />
            <path
              d="M12.8612 44.5543C12.8612 44.5543 9.23268 51.6086 6.05946 60.8123C2.88625 70.016 5.53059 70.1286 11.36 73.5455C16.6369 76.4305 19.2077 74.2572 21.1145 72.4385C23.0212 70.6174 28.7534 53.6478 36.0248 51.9968C36.0248 51.9968 23.5833 45.9345 12.8589 44.5543H12.8612Z"
              fill="url(#paint2_linear_2191_172)"
            />
            <defs>
              <linearGradient
                id="paint0_linear_2191_172"
                x1="-5.05391"
                y1="22.5551"
                x2="89.779"
                y2="77.2556"
                gradientUnits="userSpaceOnUse"
              >
                <stop stop-color="#FFBA08" />
                <stop offset="1" stop-color="#F7931E" />
              </linearGradient>
              <linearGradient
                id="paint1_linear_2191_172"
                x1="25.0158"
                y1="35.468"
                x2="80.8008"
                y2="35.468"
                gradientUnits="userSpaceOnUse"
              >
                <stop stop-color="#FFBA08" />
                <stop offset="1" stop-color="#F7931E" />
              </linearGradient>
              <linearGradient
                id="paint2_linear_2191_172"
                x1="28.3858"
                y1="41.4609"
                x2="11.8919"
                y2="69.4031"
                gradientUnits="userSpaceOnUse"
              >
                <stop stop-color="#FFBA08" />
                <stop offset="1" stop-color="#F7931E" />
              </linearGradient>
            </defs>
          </svg>