  <svg
            xmlns="http://www.w3.org/2000/svg"
            width="225"
            height="63"
            viewBox="0 0 225 63"
            fill="none"
          >
            <path
              d="M47.556 16.5359H54.5285V19.6078C56.727 17.0607 59.7674 15.4912 63.5169 15.4912C64.4869 15.4912 65.4569 15.623 66.4269 15.8171V24.5727C64.8759 24.3115 63.4529 24.3115 61.9635 24.3115C58.4725 24.3115 55.6906 26.5974 55.6906 29.4728V49.2053H45.7962V18.3115C45.7962 17.3315 46.5836 16.5359 47.5536 16.5359H47.556Z"
              fill="#333333"
            />
            <path
              d="M75.8706 37.7085V24.5104H69.4033V16.5383H75.8706V10.3418C75.8706 8.99998 76.9474 7.91452 78.2731 7.91452H85.765V16.5383H93.7194V24.5104H85.765V37.7085C85.765 39.6038 87.0575 40.7132 88.675 40.7132H93.7194V49.2076H88.675C81.6265 49.2076 75.8706 45.0263 75.8706 37.7085Z"
              fill="#333333"
            />
            <path
              d="M104.325 0.723633C107.43 0.723633 110.017 3.33785 110.017 6.47443C110.017 9.61101 107.43 12.2252 104.325 12.2252C101.221 12.2252 98.6998 9.61101 98.6998 6.47443C98.6998 3.33785 101.221 0.723633 104.325 0.723633ZM99.4113 16.5359H109.306V49.2053H99.4113V16.5359Z"
              fill="#333333"
            />
            <path
              d="M114.609 38.2308H124.114C124.114 40.4521 125.99 42.6733 129.87 42.6733C132.585 42.6733 134.461 41.4968 134.461 39.9297C134.461 38.1661 132.263 37.4473 127.994 36.5319C122.433 35.2907 115.126 33.0695 115.126 26.0775C115.126 18.6278 123.21 15.4912 129.417 15.4912C137.435 15.4912 143.839 20.7172 143.839 27.1222H134.397C134.397 25.2268 132.652 23.0703 129.225 23.0703C126.704 23.0703 125.022 24.2468 125.022 25.7492C125.022 27.7093 127.868 28.4928 131.618 29.2764C137.502 30.6494 144.358 32.8706 144.358 39.6661C144.358 47.3099 135.756 50.2524 129.614 50.2524C121.206 50.2524 114.611 44.8946 114.611 38.2308H114.609Z"
              fill="#333333"
            />
            <path
              d="M153.539 37.7085V24.5104H147.071V16.5383H153.539V11.4177C153.539 9.48163 155.092 7.91214 157.008 7.91214H163.433V16.5359H171.387V24.508H163.433V37.7061C163.433 39.6014 164.725 40.7109 166.343 40.7109H171.387V49.2053H166.343C159.294 49.2053 153.539 45.024 153.539 37.7061V37.7085Z"
              fill="#333333"
            />
            <path
              d="M178.538 1.37778H185.515C186.321 1.37778 186.974 2.03672 186.974 2.85142V47.734C186.974 48.5487 186.321 49.2076 185.515 49.2076H178.538C177.731 49.2076 177.079 48.5487 177.079 47.734V2.85142C177.079 2.03672 177.731 1.37778 178.538 1.37778Z"
              fill="#333333"
            />
            <path
              d="M193.894 53.7819H198.938C200.748 53.7819 201.72 52.6701 202.365 50.7771L203.335 48.2947L191.048 16.5383H201.006L208.313 37.1214L215.62 16.5383H224.998L212.388 49.2077L211.74 50.7748C209.153 57.635 206.048 62.274 198.936 62.274H193.892V53.7795L193.894 53.7819Z"
              fill="#333333"
            />
            <path
              d="M0.334795 32.0295C0.334795 21.6038 8.89869 13.1645 18.1646 13.1645C22.7276 13.1645 26.6597 15.2204 29.3965 18.6254V14.2979H35.845C37.5169 14.2979 38.8711 15.6661 38.8711 17.3554V49.7588H31.9982C30.561 49.7588 29.3942 48.5823 29.3942 47.1278V45.4313C26.6573 48.8363 22.7252 50.8922 18.1622 50.8922C8.89632 50.8922 0.332428 42.4529 0.332428 32.0271L0.334795 32.0295ZM19.6397 41.3219C24.3426 41.3219 28.2036 37.1382 28.2036 32.0319C28.2036 26.9257 24.3426 22.742 19.6397 22.742C14.9368 22.742 11.0758 26.9257 11.0758 32.0319C11.0758 37.1382 14.9368 41.3219 19.6397 41.3219Z"
              fill="#333333"
            />
          </svg>